<?xml version="1.0" standalone="no"?>
<!DOCTYPE svg PUBLIC "-//W3C//DTD SVG 20010904//EN"
 "http://www.w3.org/TR/2001/REC-SVG-20010904/DTD/svg10.dtd">
<svg version="1.0" xmlns="http://www.w3.org/2000/svg"
 width="1228.000000pt" height="770.000000pt" viewBox="0 0 1228.000000 770.000000"
 preserveAspectRatio="xMidYMid meet">

<g transform="translate(0.000000,770.000000) scale(0.100000,-0.100000)"
fill="#000000" stroke="none">
<path d="M0 3850 l0 -3850 6140 0 6140 0 0 3850 0 3850 -6140 0 -6140 0 0
-3850z m6685 3720 c39 -7 74 -17 79 -21 5 -5 -36 -54 -94 -113 l-103 -105 42
-17 c23 -9 41 -20 39 -24 -5 -13 -379 -262 -385 -256 -3 3 19 36 48 73 71 90
109 140 109 147 0 3 -13 6 -28 6 -16 0 -31 3 -35 6 -9 9 235 326 247 321 6 -2
43 -10 81 -17z m435 -481 c0 -6 -39 -18 -127 -39 -163 -38 -162 -38 -129 -77
14 -17 26 -33 26 -36 0 -2 -78 -7 -172 -11 -95 -3 -202 -9 -238 -13 -59 -5
-64 -4 -51 11 7 9 19 16 25 16 9 0 101 33 196 72 l25 10 -29 23 -29 23 39 17
c21 9 86 34 144 56 58 22 125 49 150 59 l45 18 63 -61 c34 -34 62 -64 62 -68z
m-1110 -124 c186 -49 337 -200 384 -381 48 -186 -3 -372 -139 -510 -98 -100
-192 -144 -336 -160 -101 -11 -275 34 -347 90 -151 118 -232 271 -232 441 0
236 160 452 383 516 77 22 213 24 287 4z m1 -1121 c23 -21 23 -3 -1 -269 -5
-60 -14 -162 -20 -225 -11 -127 -29 -182 -66 -199 -68 -31 -113 13 -133 129
-43 255 -81 499 -81 524 0 55 15 62 154 61 109 -1 128 -4 147 -21z m-308 -454
c27 -21 34 -48 55 -199 14 -98 44 -132 125 -139 51 -4 57 -2 91 29 37 34 37
34 46 148 13 163 41 183 163 117 34 -18 98 -53 142 -76 44 -24 107 -57 140
-75 83 -45 194 -103 445 -235 118 -62 223 -120 233 -128 20 -18 23 -55 5 -69
-7 -6 -76 -43 -153 -83 -77 -40 -198 -103 -270 -140 -71 -37 -220 -114 -330
-170 -110 -56 -256 -132 -325 -168 -113 -59 -131 -65 -185 -66 -62 0 -90 10
-195 70 -30 17 -89 49 -130 71 -41 22 -131 72 -200 110 -69 39 -215 120 -325
180 -278 153 -313 172 -369 202 -26 14 -55 36 -63 49 -31 46 -55 32 706 418
189 96 350 174 356 174 7 0 24 -9 38 -20z m-869 -802 c121 -67 261 -144 310
-170 103 -56 152 -84 331 -183 360 -199 351 -195 405 -195 41 0 71 12 182 69
73 37 219 112 323 166 307 158 471 243 613 317 182 95 211 88 151 -39 -122
-258 -192 -393 -219 -425 -29 -35 -81 -69 -215 -143 -27 -16 -113 -64 -190
-108 -77 -44 -194 -110 -260 -147 -359 -200 -325 -184 -391 -184 -54 0 -70 5
-140 46 -93 53 -155 88 -244 136 -36 19 -72 41 -80 47 -8 7 -49 30 -90 52 -41
22 -140 77 -219 122 -79 44 -146 81 -148 81 -2 0 -27 15 -56 33 -59 38 -112
90 -132 127 -20 38 -183 442 -190 472 -8 31 0 48 22 48 9 0 115 -55 237 -122z
m1922 -1201 c32 -36 36 -55 35 -167 l-1 -105 50 -18 c57 -20 75 -45 65 -94 -7
-38 -47 -69 -102 -79 l-33 -6 0 -64 c0 -40 13 -113 35 -198 19 -75 35 -147 35
-161 0 -68 -68 -123 -134 -109 -115 24 -162 131 -175 404 l-6 125 -38 6 c-79
13 -94 72 -32 126 21 18 46 33 56 33 29 0 46 26 53 81 10 76 62 205 93 229 34
27 75 26 99 -3z m-4966 -87 c26 -26 26 -86 0 -204 -11 -50 -20 -93 -20 -96 0
-4 20 13 45 36 67 65 150 72 219 19 60 -46 100 -178 105 -346 4 -142 -31 -209
-106 -209 -51 0 -83 18 -107 60 -19 32 -21 49 -19 178 4 180 -9 213 -62 156
-42 -45 -76 -153 -82 -261 -7 -116 -25 -143 -91 -143 -50 0 -83 26 -111 85
-53 112 -7 462 86 652 43 88 99 117 143 73z m2799 -59 c117 -60 158 -250 79
-367 -33 -50 -127 -94 -228 -107 -83 -11 -95 -21 -64 -51 21 -22 36 -20 93 9
57 28 182 65 224 65 80 0 127 -53 127 -142 0 -66 -37 -111 -125 -153 -121 -58
-329 -71 -425 -27 -57 27 -111 82 -147 152 -25 49 -28 65 -28 155 0 91 3 108
34 184 26 64 49 99 93 147 61 65 140 123 193 142 50 17 132 14 174 -7z m3678
8 c75 -28 133 -131 133 -237 -1 -144 -98 -228 -287 -248 -35 -4 -63 -11 -63
-15 0 -12 38 -49 50 -49 6 0 32 11 58 23 126 63 256 80 309 41 37 -28 55 -96
41 -154 -15 -59 -70 -102 -176 -137 -76 -24 -102 -28 -207 -28 -98 0 -126 3
-155 19 -140 75 -200 193 -181 360 15 130 51 205 141 296 119 121 238 166 337
129z m841 -5 c83 -34 130 -108 193 -297 23 -71 51 -143 63 -160 58 -86 66
-151 23 -211 -44 -62 -137 -65 -189 -7 l-28 31 -47 -36 c-156 -120 -342 -105
-398 31 -60 143 71 307 284 357 28 6 51 15 51 20 0 15 -32 58 -42 58 -6 0 -39
-20 -74 -45 -93 -66 -165 -58 -180 21 -29 153 188 303 344 238z m-3648 -25
c94 -23 134 -120 90 -216 -27 -61 -84 -70 -151 -22 -15 11 -44 26 -64 35 l-37
15 -34 -36 c-19 -21 -35 -48 -36 -63 -3 -54 4 -116 19 -156 48 -132 56 -239
24 -292 -44 -72 -130 -107 -194 -80 -40 16 -46 24 -59 75 -44 173 -51 358 -17
462 29 88 44 114 96 170 101 108 221 144 363 108z m2122 1 c103 -29 141 -157
72 -240 -34 -39 -59 -38 -141 5 -81 43 -104 44 -136 5 -46 -54 -44 -99 12
-285 25 -81 28 -147 12 -198 -16 -47 -82 -104 -131 -112 -49 -8 -107 15 -120
50 -40 105 -61 341 -41 450 27 146 130 272 260 320 44 16 162 19 213 5z
m-1408 -31 c56 -38 71 -92 41 -149 -22 -43 -43 -50 -157 -51 l-103 -2 83 -8
c93 -9 169 -39 219 -86 18 -17 35 -29 38 -27 3 2 3 1 1 -2 -2 -3 4 -24 15 -47
71 -157 -65 -347 -260 -364 -75 -7 -137 11 -172 50 -24 26 -29 40 -29 85 0 43
5 58 25 77 28 29 51 31 118 10 57 -17 98 -11 132 21 29 26 32 50 10 81 -19 27
-60 39 -190 53 -180 19 -225 46 -225 132 0 27 6 61 14 76 33 63 124 124 238
161 81 27 154 23 202 -10z m4237 0 c91 -52 127 -128 140 -301 7 -91 14 -126
31 -155 72 -127 84 -182 49 -239 -24 -40 -95 -69 -147 -61 -59 10 -109 50
-139 111 -30 61 -44 172 -45 351 0 55 -4 106 -8 113 -10 14 -29 -5 -82 -80
-36 -52 -37 -42 5 -197 34 -130 33 -171 -6 -210 -26 -26 -38 -31 -79 -31 -87
0 -132 64 -159 225 -16 96 -38 170 -54 184 -23 18 -63 -22 -88 -87 -16 -43
-23 -88 -28 -181 -6 -119 -7 -125 -33 -144 -34 -25 -89 -17 -111 17 -25 37
-37 163 -37 371 l0 193 35 31 c20 17 46 31 59 31 28 0 76 -35 76 -56 0 -18 14
-18 29 0 6 8 35 24 63 36 65 28 153 25 196 -7 l28 -21 18 27 c26 36 71 71 114
88 44 16 138 11 173 -8z m-6631 -30 c56 -25 77 -44 102 -92 51 -101 24 -281
-54 -359 -41 -41 -109 -79 -178 -99 -25 -7 -49 -15 -53 -19 -4 -4 -1 -39 8
-78 23 -99 17 -160 -16 -185 -39 -29 -113 -40 -154 -23 -46 20 -90 89 -120
191 -28 98 -31 105 -49 105 -22 0 -74 64 -81 100 -19 88 0 147 53 169 26 11
30 19 36 64 10 82 25 125 58 163 38 43 85 64 163 71 33 2 62 7 64 9 2 2 43 4
90 4 65 0 97 -5 131 -21z m-1351 -180 c35 -12 54 -43 78 -123 15 -50 59 -136
70 -136 3 0 45 33 92 73 180 154 254 197 306 177 44 -17 48 -43 30 -195 -10
-81 -48 -205 -90 -290 -110 -226 -250 -355 -401 -371 -53 -6 -69 -3 -117 19
-63 29 -87 63 -87 126 0 51 37 98 86 107 18 3 63 0 99 -7 60 -12 66 -11 86 7
26 23 109 152 109 169 0 2 -21 -5 -46 -17 -65 -28 -140 -22 -196 18 -49 34
-104 121 -124 196 -29 110 -11 228 38 248 30 12 30 12 67 -1z"/>
<path d="M4384 2894 l-39 -35 40 6 c47 8 65 21 65 46 0 29 -22 23 -66 -17z"/>
<path d="M8079 2898 c-39 -29 -42 -33 -22 -36 33 -5 78 20 81 46 5 30 -7 28
-59 -10z"/>
<path d="M9065 2793 c-23 -6 -62 -40 -77 -67 -10 -18 -9 -18 22 0 40 24 98 73
85 72 -5 0 -19 -2 -30 -5z"/>
<path d="M3537 2963 c-4 -3 -7 -29 -7 -56 l0 -50 36 6 c60 10 79 41 54 88 -11
19 -68 28 -83 12z"/>
</g>
</svg>
